<?xml version="1.0" encoding="utf-8"?>
<svg version="1.1" id="레이어_1" xmlns="http://www.w3.org/2000/svg" xmlns:xlink="http://www.w3.org/1999/xlink" x="0px"
	 y="0px" viewBox="0 0 383 413" style="enable-background:new 0 0 383 413;" xml:space="preserve">
<style type="text/css">
	.st1{fill:#61DAFB;}
	.st3{fill:#FFFF00;}
</style>
<g>
	<path class="st1" d="M306.06,82.68c6.48-0.63,13.04,1.67,19.4,3.9c6.48,2.27,13.17,4.62,19.87,3.84
	c19.78-2.31,30.24-13.8,30.68-14.28l-7.38-6.25c-0.08,0.09-8.6,9.24-24.46,11.09c-4.39,0.51-9.73-1.36-15.38-3.34
	c-7.04-2.47-15.01-5.26-23.7-4.42c-9.89,0.96-18.22,9.24-26.27,17.25c-5.35,5.32-10.88,10.83-15.64,12.62
	c-8.63,3.26-20.55-0.26-25.34-1.94c-2.47-6.94-8.73-10.55-14.34-13.77c-21.82-12.54-20.77-46.05-0.92-59.86
	c4.4-3.07,11.27-6.3,16.74-6.81c18.43-1.73,24.51,11.36,24.76,11.92l9.02-3.69c-2.99-6.97-14.1-19.63-34.73-17.69
	c-25.22,2.37-46.74,27.4-40.67,55.82c2.71,12.72,9.34,21.9,20.82,28.5c6.13,3.52,9.64,5.72,10.44,10c0.93,4.95-0.8,7.37-4.57,12.69
	c-4.93,6.92-12.37,17.39-15.76,40.01l-0.03,0.18l-0.01,0.18c-1.35,19.67,6.31,38.62,12.46,53.85c4.21,10.41,7.84,19.39,7.84,26.05
	c0,7.72-6.49,21.52-12.77,34.87c-7.63,16.22-15.52,32.99-15.52,45.42c0,22.75,41.24,77.02,45.95,83.13l7.84-5.69
	c-11.22-14.59-38.84-53.56-43.35-72.74l56.51-0.6c3.2,24.2,41.22,74.24,45.72,80.09l7.85-5.69c-12.24-15.91-44-60.84-44-77.44
	c0-10.36,7.44-26.18,14.63-41.47c7.02-14.93,13.65-29.03,13.65-38.82h-9.79c0,7.72-6.49,21.52-12.77,34.87
	c-6.37,13.55-12.91,27.48-14.9,38.95L210.83,314c1.7-10.11,8.02-23.57,14.18-36.67c7.02-14.93,13.65-29.03,13.65-38.82
	c0-8.46-3.95-18.22-8.51-29.52c-5.62-13.92-11.94-29.55-11.94-45.67c0-1.3,0.05-2.61,0.13-3.92c3.07-20.26,9.44-29.22,14.09-35.76
	c2.83-3.98,5.4-7.58,6.26-12.22c7.14,2.04,18.53,4.12,28.05,0.53c2.01-0.76,3.95-1.83,5.85-3.11l0.1,0.23
	c18.08-7.52,23.51-4.28,32.5,1.09l6.61,4.18c4.3,2.83,7.41,4.88,14.11,6.88c20.37,6.09,45.86-4.66,46.93-5.12l-3.95-8.7
	c-0.23,0.1-23.25,9.77-40.11,4.74c-5.29-1.58-7.36-2.94-11.49-5.66l-6.97-4.41c-6.4-3.83-12.57-7.5-22.66-6.77
	C293.9,89.12,300.27,83.24,306.06,82.68z"/>

	<path class="st1" d="M150.12,330.23c-13.82,20.19-31.01,45.31-56.3,54.6c-8.58,3.16-16.8,2.72-23.15-1.23
		c-6.7-4.17-10.77-11.82-11.46-21.53l-8.37,0.56c0.88,12.35,6.32,22.24,15.31,27.83c8.63,5.37,19.52,6.08,30.65,1.99
		c27.81-10.22,45.83-36.55,60.31-57.71c10.66-15.57,35.83-49.9,47.08-65.04l-8.2-3.53C184.67,281.4,160.83,314.58,150.12,330.23z"/>
	<path class="st1" d="M215.1,241.78c-5.72,7.25-11.76,15.13-19.02,24.8l6.78,4.8c7.22-9.61,13.23-17.44,18.9-24.65
		c14.04-17.83,45.59-49.02,64.44-39.48c7.67,3.88,10.8,16.54,10.48,26.67l8.39,0.26c0.39-12.06-3.3-28.23-14.99-34.15
		C260.84,185.22,219.69,235.94,215.1,241.78z"/>


	<path class="st3" d="M52.1,206.77v34.06H14.32v-34.06H52.1z M72.39,251.2c4.8,2.61,7.2,5.96,7.2,10.08c0,4.21-2.4,7.67-7.2,10.38
		c-5.32,3.01-12.78,4.51-22.38,4.51c-9.76,0-17.29-1.5-22.61-4.51c-4.75-2.71-7.12-6.17-7.12-10.38c0-4.11,2.37-7.47,7.12-10.08
		c5.37-2.91,12.9-4.36,22.61-4.36C59.62,246.84,67.07,248.29,72.39,251.2z M25.78,231.5h14.95v-15.34H25.78V231.5z M36.31,256.77
		c-2.84,1.1-4.26,2.66-4.26,4.66s1.39,3.61,4.18,4.81c3.15,1.35,7.74,2.03,13.78,2.03c5.94,0,10.45-0.68,13.55-2.03
		c2.79-1.2,4.18-2.81,4.18-4.81s-1.39-3.56-4.18-4.66c-3.05-1.25-7.51-1.88-13.4-1.88C44.08,254.89,39.46,255.51,36.31,256.77z
		 M77.5,203.16c1.03,0.1,1.75,0.25,2.17,0.45c0.36,0.15,0.54,0.4,0.54,0.75c-0.05,0.25-0.21,0.7-0.46,1.35
		c-0.26,0.65-0.44,1.18-0.54,1.58c-0.21,0.75-0.31,1.5-0.31,2.26v38.5H67.44v-19.92H54.2v-9.4h13.24v-15.64h5.58
		C74.97,203.08,76.47,203.11,77.5,203.16z"/>
	<path class="st3" d="M131.4,206.77v34.06H93.61v-34.06H131.4z M151.69,251.2c4.8,2.61,7.2,5.96,7.2,10.08
		c0,4.21-2.4,7.67-7.2,10.38c-5.32,3.01-12.78,4.51-22.38,4.51c-9.76,0-17.29-1.5-22.61-4.51c-4.75-2.71-7.12-6.17-7.12-10.38
		c0-4.11,2.37-7.47,7.12-10.08c5.37-2.91,12.9-4.36,22.61-4.36C138.91,246.84,146.37,248.29,151.69,251.2z M105.07,231.5h14.95
		v-15.34h-14.95V231.5z M115.6,256.77c-2.84,1.1-4.26,2.66-4.26,4.66s1.39,3.61,4.18,4.81c3.15,1.35,7.74,2.03,13.78,2.03
		c5.94,0,10.45-0.68,13.55-2.03c2.79-1.2,4.18-2.81,4.18-4.81s-1.39-3.56-4.18-4.66c-3.05-1.25-7.51-1.88-13.4-1.88
		C123.37,254.89,118.75,255.51,115.6,256.77z M156.8,203.16c1.03,0.1,1.75,0.25,2.17,0.45c0.36,0.15,0.54,0.4,0.54,0.75
		c-0.05,0.25-0.21,0.7-0.46,1.35c-0.26,0.65-0.44,1.18-0.54,1.58c-0.21,0.75-0.31,1.5-0.31,2.26v38.5h-11.46v-19.92h-13.24v-9.4
		h13.24v-15.64h5.58C154.27,203.08,155.76,203.11,156.8,203.16z"/>
	<path class="st3" d="M65.89,283.76c0.26,0.25,0.1,0.83-0.46,1.73l-0.62,1.28c-1.24,3.41-1.55,6.62-0.93,9.62
		c0.62,2.96,2.14,5.71,4.57,8.27c0.98-2.21,1.86-5.41,2.63-9.62c0.77-4.26,1.16-8.12,1.16-11.58h5.96c2.53,0,4,0.2,4.41,0.6
		c0.26,0.3,0.05,1.05-0.62,2.26v0.15c-1.24,5.76-1.45,10.73-0.62,14.89c0.93,4.31,3.05,8.15,6.35,11.5
		c-1.29,0.95-2.63,2.11-4.03,3.46c-1.34,1.3-2.58,2.63-3.72,3.99c-1.08-1.05-2.14-2.46-3.17-4.21c-1.08-1.8-1.91-3.56-2.48-5.26
		c-0.77,2-1.91,4.06-3.41,6.17c-1.55,2.16-3.25,4.01-5.11,5.56c-1.45-1.25-2.76-2.33-3.95-3.23c-1.55-1.2-2.92-2.13-4.1-2.78
		c1.75-1.3,3.48-2.86,5.19-4.66c1.7-1.8,3.35-3.86,4.96-6.17c-1.08,0.7-2.32,1.68-3.72,2.93c-1.08,0.95-2.09,1.96-3.02,3.01
		l-0.31-0.53c-0.57-0.85-1.01-1.5-1.32-1.95c-0.46-0.75-0.85-1.45-1.16-2.11c-0.72,1.91-1.52,3.71-2.4,5.41
		c-1.03,2.01-2.07,3.61-3.1,4.81c-0.98-0.95-2.17-1.96-3.56-3.01c-1.55-1.2-2.97-2.18-4.26-2.93c3.77-2.66,6.53-6.87,8.29-12.63
		c1.39-4.46,2.09-9.6,2.09-15.41h6.89C64.39,283.31,65.58,283.46,65.89,283.76z M117.7,325.12v27.97h-11.46v-1.65H68.99v1.65H57.53
		v-27.97H117.7z M68.99,342.93h37.25v-9.4H68.99V342.93z M118.32,281.51c0.36,0.25,0.36,0.85,0,1.8c-0.21,0.55-0.36,1-0.46,1.35
		c-0.1,0.55-0.16,1.1-0.16,1.65v35.64h-11.23v-13.01h-5.19v13.01H90.21v-40h7.67c2.43,0,3.87,0.15,4.34,0.45
		c0.36,0.2,0.34,0.73-0.08,1.58c-0.31,0.55-0.52,0.98-0.62,1.28c-0.15,0.6-0.23,1.2-0.23,1.8v12.48h5.19v-18.5h7.05
		C116.15,281.06,117.75,281.21,118.32,281.51z"/>
</g>
</svg>
